<svg xmlns="http://www.w3.org/2000/svg" width="250" height="414" fill="none" viewBox="0 0 250 414">
  <path fill="#D07F3C" d="M192.227 136.32s3.245 10.538 2.678 19.18c-.379 5.801-4.998 11.347-6.995 11.238-2.565-.14-9.888-5.734-9.394-13.316.39-5.9 5.097-12.204 7.677-17.527l6.028.425h.006Z"/>
  <path fill="#DF8F3E" d="M192.643 126.109s6.194-9.125 13.299-14.095c4.77-3.334 11.994-3.209 13.16-1.589 1.498 2.083 1.711 11.29-4.52 15.648-4.848 3.391-12.723 3.671-18.496 4.991l-3.443-4.96v.005Z"/>
  <path fill="#EFAE42" d="M183.904 128.876s-8.764-6.704-13.32-14.074c-3.059-4.944-2.512-12.142-.822-13.206 2.169-1.371 11.386-1.055 15.38 5.416 3.105 5.033 2.929 12.895 3.917 18.728l-5.16 3.142.005-.006Z"/>
  <path fill="#DF8F3E" d="M183.904 128.876s-18.553-16.432-10.631-12.901c10.007 4.461 6.288 2.509 10.917-7.322 2.517-5.349 3.891 11.243 4.874 17.076l-5.16 3.141v.006Z"/>
  <path fill="#EFAE42" d="M194.869 132.927s10.116 5.219 16.082 11.872c4.005 4.466 4.759 11.872 3.241 13.259-1.956 1.786-11.371 3.131-16.603-2.706-4.073-4.544-5.321-12.558-7.386-18.301l4.666-4.129v.005Z"/>
  <path fill="#DF8F3E" d="M190.869 134.035c2.689 2.555 4.728 5.552 6.611 8.689 1.831 3.168 3.448 6.408 4.369 10.002-2.694-2.555-4.733-5.546-6.611-8.688-1.825-3.174-3.443-6.409-4.369-10.003Z"/>
  <path fill="#EFAE42" d="M193.271 128.529s10.434-4.55 19.37-4.976c5.997-.285 12.228 3.797 12.348 5.848.156 2.638-4.733 10.787-12.572 11.161-6.095.29-13.117-3.792-18.88-5.817l-.266-6.216Z"/>
  <path fill="#DF8F3E" d="M191.613 132.324c3.683-.473 7.298-.166 10.923.353 3.615.582 7.157 1.366 10.533 2.919-3.683.478-7.298.171-10.923-.353-3.615-.587-7.157-1.371-10.533-2.919Z"/>
  <path fill="#EFAE42" d="M186.766 126.779s-.988-11.327 1.456-19.917c1.644-5.765 7.506-10.36 9.493-9.82 2.553.695 8.727 7.919 6.579 15.455-1.669 5.863-7.786 11.202-11.547 16.011l-5.986-1.729h.005Z"/>
  <path fill="#F8D181" d="M186.87 126.582s-1.243-9.395 1.456-19.916c1.68-6.56 9.492-11.02 8.634-9.151-9.799 21.402-.348 25.987-4.104 30.797l-5.986-1.73Z"/>
  <path fill="#DF8F3E" d="M189.834 129.562c.728-3.636 2.169-6.959 3.823-10.226 1.706-3.236 3.584-6.336 6.132-9.031-.723 3.635-2.163 6.959-3.823 10.225-1.711 3.236-3.583 6.336-6.132 9.032Z"/>
  <path fill="#EFAE42" d="M185.449 125.298s-10.242-4.965-19.157-5.749c-5.981-.525-12.374 3.303-12.576 5.349-.26 2.633 4.296 10.968 12.113 11.654 6.081.535 13.259-3.267 19.1-5.053l.515-6.201h.005Z"/>
  <path fill="#F8D181" d="M185.45 125.298s-10.241-4.965-19.156-5.749c-5.982-.525-12.374 3.303-12.577 5.349 0 0 17.284-5.562 31.213 6.601l.515-6.201h.005Z"/>
  <path fill="#DF8F3E" d="M183.291 128.342c-3.652.685-7.277.592-10.923.286-3.646-.369-7.225-.946-10.683-2.301 3.651-.691 7.276-.597 10.922-.286 3.646.374 7.225.951 10.684 2.301Z"/>
  <path fill="#EFAE42" d="M187.051 135.708s-3.568 10.433-9.107 17.096c-3.719 4.472-10.72 6.253-12.275 4.996-1.992-1.615-4.635-10.438.229-16.286 3.781-4.544 11.302-6.887 16.524-9.686l4.629 3.88Z"/>
  <path fill="#835B2E" d="M191.525 126.103a.774.774 0 0 0-.192-.332.486.486 0 0 0-.468-.125.495.495 0 0 0-.339.338c-.01.047-.015.093-.02.14a.422.422 0 0 0-.068.234c0 .078.01.161.016.239 0 .088.02.166.067.244a.49.49 0 0 0 .416.239.456.456 0 0 0 .245-.068.814.814 0 0 0 .265-.27c.005-.01.011-.021.016-.036.021-.047.041-.094.057-.146.021-.062.026-.135.031-.192v-.072c-.005-.063-.01-.13-.031-.193h.005Z"/>
  <path fill="#835B2E" d="M189.871 145.013c7.351 0 13.31-5.95 13.31-13.29 0-7.339-5.959-13.289-13.31-13.289-7.351 0-13.31 5.95-13.31 13.289 0 7.34 5.959 13.29 13.31 13.29Z"/>
  <path fill="#684623" d="M197.142 120.598a13.2 13.2 0 0 1 2.163 7.265c0 7.338-5.96 13.29-13.31 13.29a13.27 13.27 0 0 1-7.276-2.16c2.377 3.625 6.475 6.024 11.141 6.024 7.349 0 13.31-5.952 13.31-13.29 0-4.658-2.403-8.751-6.033-11.124l.005-.005Z"/>
  <path fill="#684623" d="M187.514 135.016a1.87 1.87 0 0 0-.478-.821c-.125-.099-.25-.192-.375-.291a1.868 1.868 0 0 0-.941-.254h-.177a1.366 1.366 0 0 0-.718.161 1.353 1.353 0 0 0-.598.384 1.367 1.367 0 0 0-.385.597 1.422 1.422 0 0 0-.161.717c.021.166.047.327.068.493.088.317.249.587.478.821.125.099.25.192.375.291.291.166.603.254.941.254h.177c.255.011.494-.041.718-.161.228-.073.431-.202.598-.384.182-.166.312-.369.385-.597.114-.224.171-.463.161-.717-.021-.166-.047-.327-.068-.493Zm9.248-5.403a1.87 1.87 0 0 0-.229-.519c.041.062-.198-.291-.312-.395-.005-.005-.016-.01-.021-.015-.125-.099-.25-.192-.375-.291-.327-.198-.556-.244-.905-.291-.161-.021-.317-.052-.478-.047-.245 0-.494.047-.728.083-.323.052-.624.193-.921.328a1.954 1.954 0 0 0-.255.14c-.203.135-.4.285-.582.452a3.262 3.262 0 0 0-.635.805 1.364 1.364 0 0 0-.218.69c-.057.25-.047.494.031.743.057.244.166.452.333.634v.031c.057.244.166.452.333.633.083.14.192.25.333.333.182.166.39.275.634.332.229.073.479.099.718.109h.109c.198-.015.406-.041.603-.083.224-.047.437-.161.64-.254.078-.037.151-.078.219-.13.265-.187.53-.385.743-.629.219-.249.427-.519.609-.799.354-.551.541-1.2.359-1.855l-.005-.005Zm-5.966 5.61c-2.397 0-2.397 3.718 0 3.718 2.398 0 2.398-3.718 0-3.718Zm-8.405 2.623c-2.398 0-2.398 3.718 0 3.718s2.398-3.718 0-3.718Zm15.973-12.522s-.011-.104-.021-.14a1.287 1.287 0 0 0-.114-.27.903.903 0 0 0-.172-.223 1.094 1.094 0 0 0-.234-.172.952.952 0 0 0-.39-.119c-.063-.011-.13-.026-.198-.016a1.609 1.609 0 0 0-.686.192 1.846 1.846 0 0 0-.365.296c-.166.198-.286.39-.364.639-.036.12-.046.25-.057.369v.073c-.01.109-.021.223-.005.332.021.203.042.41.12.602a.927.927 0 0 0 .244.416.936.936 0 0 0 1.332 0 3.96 3.96 0 0 0 .525-.686c.052-.088.104-.181.146-.275.072-.156.156-.327.202-.493l.016-.063c.016-.093.036-.197.036-.296a.733.733 0 0 0-.02-.15l.005-.016Zm-8.473 5.179c0-.13-.021-.25-.084-.364a.713.713 0 0 0-.192-.301c-.062-.047-.125-.099-.192-.146a.957.957 0 0 0-.474-.13l-.249.032a.93.93 0 0 0-.417.244 2.857 2.857 0 0 0-.431.498 1.83 1.83 0 0 0-.219.374.708.708 0 0 0-.109.348.754.754 0 0 0 .016.374.73.73 0 0 0 .166.322c.042.062.104.099.161.146.032.041.042.088.078.124a.668.668 0 0 0 .302.192.727.727 0 0 0 .364.083l.25-.031a.933.933 0 0 0 .416-.244c.047-.062.099-.124.146-.192a.95.95 0 0 0 .13-.473v-.005c.01-.041.02-.083.031-.119.031-.052.057-.109.093-.161l-.026.031a.748.748 0 0 0 .156-.244.728.728 0 0 0 .084-.364v.006Zm7.147 5.447-.141-.338c-.01-.046-.047-.077-.062-.119v-.052c0 .016 0 .026-.006.042v-.006a.636.636 0 0 0 .011-.264.687.687 0 0 0-.109-.348.701.701 0 0 0-.245-.265.651.651 0 0 0-.322-.166l-.25-.032a.889.889 0 0 0-.473.13l-.193.146a.992.992 0 0 0-.244.415 2.046 2.046 0 0 0-.052.353c0 .042-.011.078-.011.12 0 .161.026.327.063.483a1.773 1.773 0 0 0 .239.54c.068.098.141.192.219.28.062.047.124.099.192.146a.719.719 0 0 0 .348.109c.084.02.167.02.25 0a.722.722 0 0 0 .349-.109c.062-.047.124-.099.192-.146.047-.062.099-.124.146-.192a.705.705 0 0 0 .109-.348.754.754 0 0 0-.016-.374l.006-.005Zm-3.755-9.8c-.073-.228-.213-.446-.432-.561a.969.969 0 0 0-.65-.098c-.104.01-.208 0-.312-.011-.406-.265-.947-.317-1.384-.062a.94.94 0 0 0-.457.763s-.006.006-.006.011a1.171 1.171 0 0 0-.145.509c-.005.166.057.363.145.509.11.176.245.306.417.42.41.276.993.265 1.414.021.078-.042.13-.109.198-.171.088-.016.177-.032.255-.083.015-.011.026-.026.041-.037.089-.01.172-.026.26-.052.229-.072.437-.223.562-.431a.946.946 0 0 0 .094-.722v-.005Zm-11.48 8.225a8.424 8.424 0 0 1-.093-.223.93.93 0 0 0-.333-.332 2.722 2.722 0 0 0-.312-.13c-.037-.01-.068-.021-.104-.026a4.057 4.057 0 0 0-.344-.047h-.109c-.114 0-.223.026-.338.042-.036.005-.073.01-.104.021a.756.756 0 0 0-.104.036c-.104.041-.213.083-.312.14a.674.674 0 0 0-.26.239.665.665 0 0 0-.166.317.684.684 0 0 0-.016.369.705.705 0 0 0 .109.347c.047.063.099.125.146.187a.948.948 0 0 0 .411.239l.249.031c.136 0 .26-.036.38-.088.01 0 .026-.005.042-.01.026.005.052.01.078.021-.016-.006-.037-.016-.058-.021h.042c.057.015.109.052.172.057a.732.732 0 0 0 .369-.016.712.712 0 0 0 .317-.166.715.715 0 0 0 .24-.26c.031-.072.062-.145.093-.223a.88.88 0 0 0 0-.493l.005-.011Z"/>
</svg>
